<svg xmlns="http://www.w3.org/2000/svg" viewBox="0 0 100 100">
<rect width="100" height="100" rx="24" fill="#23090a"/>
<g fill="none" stroke="#fdfad8" stroke-width="3" stroke-linecap="round" stroke-linejoin="round">
<path d="M50 50L50 3M50 50L73.5 9.3M50 50L90.7 26.5M50 50L97 50M50 50L90.7 73.5M50 50L73.5 90.7M50 50L50 97M50 50L26.5 90.7M50 50L9.3 73.5M50 50L3 50M50 50L9.3 26.5M50 50L26.5 9.3"/>
<path d="M50 37Q52.69 39.95 56.5 38.74M56.5 38.74Q57.35 42.65 61.26 43.5M61.26 43.5Q60.05 47.31 63 50M63 50Q60.05 52.69 61.26 56.5M61.26 56.5Q57.35 57.35 56.5 61.26M56.5 61.26Q52.69 60.05 50 63M50 63Q47.31 60.05 43.5 61.26M43.5 61.26Q42.65 57.35 38.74 56.5M38.74 56.5Q39.95 52.69 37 50M37 50Q39.95 47.31 38.74 43.5M38.74 43.5Q42.65 42.65 43.5 38.74M43.5 38.74Q47.31 39.95 50 37M50 26Q54.97 31.45 62 29.22M62 29.22Q63.58 36.42 70.78 38M70.78 38Q68.55 45.03 74 50M74 50Q68.55 54.97 70.78 62M70.78 62Q63.58 63.58 62 70.78M62 70.78Q54.97 68.55 50 74M50 74Q45.03 68.55 38 70.78M38 70.78Q36.42 63.58 29.22 62M29.22 62Q31.45 54.97 26 50M26 50Q31.45 45.03 29.22 38M29.22 38Q36.42 36.42 38 29.22M38 29.22Q45.03 31.45 50 26M50 15Q57.25 22.95 67.5 19.69M67.5 19.69Q69.8 30.2 80.31 32.5M80.31 32.5Q77.05 42.75 85 50M85 50Q77.05 57.25 80.31 67.5M80.31 67.5Q69.8 69.8 67.5 80.31M67.5 80.31Q57.25 77.05 50 85M50 85Q42.75 77.05 32.5 80.31M32.5 80.31Q30.2 69.8 19.69 67.5M19.69 67.5Q22.95 57.25 15 50M15 50Q22.95 42.75 19.69 32.5M19.69 32.5Q30.2 30.2 32.5 19.69M32.5 19.69Q42.75 22.95 50 15M50 5Q59.32 15.23 72.5 11.03M72.5 11.03Q75.46 24.54 88.97 27.5M88.97 27.5Q84.77 40.68 95 50M95 50Q84.77 59.32 88.97 72.5M88.97 72.5Q75.46 75.46 72.5 88.97M72.5 88.97Q59.32 84.77 50 95M50 95Q40.68 84.77 27.5 88.97M27.5 88.97Q24.54 75.46 11.03 72.5M11.03 72.5Q15.23 59.32 5 50M5 50Q15.23 40.68 11.03 27.5M11.03 27.5Q24.54 24.54 27.5 11.03M27.5 11.03Q40.68 15.23 50 5"/>
</g>
<circle cx="50" cy="50" r="2.6" fill="#fdfad8"/>
</svg>